PathFileType	4	(X/Y/Z)	D:\TRACE\v60_Jaco2_6-2-23\BothDRS_Motion3_9-v60.trc
DataRate	CameraRate	NumFrames	NumMarkers	Units	OrigDataRate	OrigDataStartFrame	OrigNumFrames
100.00	100.00	      31	9	mm	100.00	2626	      7000
Frame#	Time	front left toe			Front right toe			aft left toe			aft right toe			Arm			FL body			FR body			AL Body			AR Body			
		X1	Y1	Z1	X2	Y2	Z2	X3	Y3	Z3	X4	Y4	Z4	X5	Y5	Z5	X6	Y6	Z6	X7	Y7	Z7	X8	Y8	Z8	X9	Y9	Z9	

2626	26.250	-148.84682	39.46416	-205.02013	252.23959	134.01270	-226.30330	-137.75116	65.54501	390.65457	210.64014	-26.72833	426.72180	77.29111	1157.33386	-546.10742	-24.49236	541.43011	-380.00455	133.44963	539.09381	-376.19800	-38.99044	496.66483	563.19568	112.61427	485.32172	566.22888	
2627	26.260	-148.83247	39.29760	-205.03801	252.19823	125.04786	-230.50668	-136.62613	56.99414	387.42148	211.10202	-26.52204	426.64377	77.00200	1157.30042	-547.29230	-24.80293	541.34357	-381.08295	133.41483	538.70258	-377.85477	-38.07695	496.44598	562.12744	113.63523	485.12320	565.00519	
2628	26.270	-148.84029	39.12641	-205.06601	253.53424	117.12723	-233.55164	-134.90132	48.39099	384.58530	211.21417	-26.53752	426.58316	76.18364	1157.09692	-548.39703	-24.99410	541.25677	-382.19159	133.27100	538.64081	-378.95905	-36.32068	496.17877	561.15210	115.05923	484.92462	563.56073	
2629	26.280	-148.85611	39.05563	-205.20792	251.13554	107.67280	-237.02870	-132.64560	39.73464	382.30069	211.31003	-26.40293	426.45520	76.15623	1156.91687	-549.68878	-24.98854	541.04785	-383.44772	133.46638	538.94214	-380.72025	-35.33886	496.00766	560.16052	116.82522	484.68564	562.40063	
2630	26.290	-148.81894	39.00916	-205.28604	252.50562	99.96741	-238.30211	-130.36165	31.30913	380.64447	211.37613	-26.26229	426.27557	75.40844	1156.95850	-550.80957	-25.15919	541.16840	-384.70300	132.83473	538.98322	-381.92282	-34.03717	495.30869	558.49512	118.71351	484.27460	560.20465	
2631	26.300	-148.85849	39.02678	-205.46799	253.27040	91.77464	-239.44749	-128.19926	22.62103	379.82568	211.44231	-26.19209	425.98892	74.80264	1157.03821	-552.24658	-24.94029	540.91095	-385.80237	133.75069	538.68909	-383.72800	-32.39382	495.31442	557.45648	119.89995	484.45193	559.49054	
2632	26.310	-148.82974	38.84985	-205.48293	253.55659	83.64159	-240.55890	-127.44817	15.03703	379.26886	211.50204	-26.00661	425.88388	74.04438	1157.15552	-553.46265	-25.24270	540.68549	-387.49991	133.30067	538.39545	-384.83600	-31.03041	495.25851	556.00494	120.47488	484.45319	557.74731	
2633	26.320	-148.86165	38.65940	-205.56973	255.95853	77.88386	-240.15668	-126.46833	8.46867	379.28754	211.51775	-25.92963	425.65527	73.41922	1157.01636	-554.96979	-24.94299	540.27032	-388.69974	133.60419	538.19891	-386.89093	-29.39667	494.60165	554.79919	123.11052	483.95593	556.22943	
2634	26.330	-148.97070	38.51900	-205.58652	255.07808	70.77168	-241.79668	-125.71631	2.00847	379.16364	211.46118	-25.93700	425.52429	72.71202	1156.74622	-556.34955	-25.11992	540.15558	-390.19507	133.27278	538.01678	-388.38348	-28.19831	494.18869	553.10406	124.45123	483.50998	554.57892	
2635	26.340	-149.11447	38.56944	-205.58635	255.59439	64.59228	-242.74701	-124.98920	-4.23360	378.32272	211.43150	-25.87944	425.41287	72.10522	1156.56433	-558.07184	-24.77832	539.83844	-391.67953	133.75595	538.06323	-390.65341	-26.41849	493.81155	551.75891	125.58934	483.33664	552.80371	
2636	26.350	-149.18730	38.56631	-205.69737	257.04340	58.01788	-244.21393	-123.82570	-10.57573	377.06790	211.39229	-25.87167	425.28418	71.64017	1156.42017	-560.02112	-24.88449	539.86584	-393.54065	133.16502	538.18665	-392.11426	-24.98198	493.88226	550.03247	127.34536	483.12433	550.23230	
2637	26.360	-149.20338	38.56260	-205.73943	256.80484	51.15930	-246.14133	-122.48252	-17.03294	375.46429	211.25294	-25.95996	425.04453	71.16445	1156.19812	-561.83160	-24.59663	539.63617	-395.13770	133.51756	537.83191	-394.13312	-23.30310	493.75885	548.44781	128.83026	483.08627	548.25677	
2638	26.370	-149.19440	38.49852	-205.77190	257.61197	47.63121	-248.19156	-122.87599	-17.39891	374.97208	211.24608	-25.97327	424.81000	70.67020	1155.98486	-563.73022	-24.37464	539.27667	-396.80865	134.10536	537.67120	-396.33063	-21.73097	493.96985	546.71094	130.23479	483.29251	546.23877	
2639	26.380	-149.28099	38.37659	-205.72400	257.97577	45.08110	-248.25726	-123.62224	-17.01058	374.11807	211.31821	-25.86889	424.59973	70.25324	1155.88599	-565.79175	-24.43984	538.98810	-398.66989	134.14047	537.34521	-398.04626	-20.00072	494.97861	544.83716	131.99556	484.13196	544.28308	
2640	26.390	-149.27505	38.37898	-205.75606	258.53674	46.00759	-249.41977	-123.14394	-16.43884	374.52542	211.29443	-25.56703	424.38626	70.01991	1155.95349	-568.38239	-24.34023	538.92419	-400.32727	133.82144	537.41785	-400.02554	-18.36870	496.42148	543.16321	133.69865	485.90411	542.32892	
2641	26.400	-148.78741	38.88579	-206.16605	257.84784	44.66687	-249.15723	-122.79850	-16.45865	374.75177	211.40228	-24.42249	424.08932	70.24191	1156.11548	-571.89972	-24.22050	539.51953	-401.84598	133.75496	538.43811	-402.00714	-16.62263	497.54688	541.58508	135.29407	487.11047	540.31274	
2642	26.410	-145.68207	43.52533	-207.18324	257.99283	43.22456	-249.24959	-122.39705	-16.88931	374.59500	211.28238	-20.85292	423.82645	70.10390	1155.87207	-574.88910	-24.40991	540.63263	-403.79279	133.82925	539.13550	-404.02130	-14.88128	498.49994	539.92444	137.32796	487.49518	538.47369	
2643	26.420	-140.40530	48.37292	-204.44405	258.27084	43.84177	-249.90858	-122.62355	-16.58712	374.54517	207.59615	-15.99849	426.29193	69.46250	1155.36279	-577.36700	-24.01858	541.96912	-405.41370	134.99342	540.33807	-406.11548	-13.30958	498.79370	538.09113	139.07230	487.68286	536.48157	
2644	26.430	-136.45508	54.21590	-201.36313	257.82837	43.16798	-250.04756	-122.77258	-16.71385	373.99396	203.35008	-7.66776	427.77737	67.95995	1155.25171	-579.12982	-24.03449	542.36932	-407.16202	134.17171	540.76996	-407.79868	-12.22335	498.97693	536.36542	140.06586	488.05347	534.40521	
2645	26.440	-136.68375	67.33016	-203.84149	257.98779	42.98185	-250.30222	-122.72402	-16.35393	374.09760	201.83257	4.22609	426.30841	67.34254	1155.97778	-580.24579	-24.03941	542.08783	-408.76370	134.15292	541.13770	-409.27176	-11.14714	499.75235	534.93250	140.99419	488.93054	532.72906	
2646	26.450	-136.80629	79.76851	-206.14618	257.84961	42.70440	-250.11885	-122.48052	-16.75649	373.94580	202.90001	17.96292	422.36697	66.71493	1157.69287	-581.27124	-23.65750	541.78522	-410.22336	134.64662	540.61090	-411.21307	-10.82512	500.11655	533.29742	141.44499	489.39828	531.42511	
2647	26.460	-137.98807	92.90230	-210.12941	257.73700	42.56276	-250.18304	-123.28919	-16.27624	374.14734	207.37173	31.39508	417.53479	66.50111	1158.42920	-582.07507	-23.36090	541.60803	-411.68829	134.64500	540.31335	-412.54568	-10.74760	500.46384	531.67255	141.92612	489.54904	529.92535	
2648	26.470	-139.21318	107.79465	-214.97310	257.58713	42.55235	-250.19284	-123.67496	-16.35631	373.99942	212.87244	45.88581	411.89453	66.95145	1158.50256	-583.11682	-23.12244	541.80237	-413.09909	135.22974	540.37262	-413.84583	-10.72658	500.29208	530.53162	141.12024	489.32715	528.50183	
2649	26.480	-139.94429	121.45422	-220.05379	257.47974	42.55307	-250.28822	-123.48512	-16.88892	373.71301	217.45979	59.65664	406.40472	68.13453	1158.19360	-584.10626	-23.08399	542.07458	-414.30121	134.83768	540.99005	-414.99878	-11.00267	499.57687	528.91943	141.64305	488.85043	527.29150	
2650	26.490	-140.28389	134.60822	-225.46799	257.33563	42.48056	-250.42317	-124.68649	-16.49332	374.07120	221.72377	72.30552	400.16571	69.71283	1157.89600	-585.43463	-22.73772	542.42627	-415.44931	135.08174	541.15814	-415.99979	-11.47712	499.35822	527.81976	141.46994	488.39999	526.01599	
2651	26.500	-140.34973	147.23389	-230.74275	256.96295	42.43596	-250.56314	-124.85719	-16.55823	373.99417	222.79251	84.38624	394.09155	71.38789	1157.87317	-586.68866	-23.01664	542.83191	-416.71310	135.73978	541.35126	-417.73392	-11.62529	499.36621	526.76544	141.28520	488.34613	525.03943	
2652	26.510	-140.91733	159.07063	-235.95316	256.41226	42.11722	-250.84065	-124.93774	-16.24467	373.58099	224.70238	96.36743	388.60440	72.40191	1158.04211	-587.92566	-23.02145	542.91803	-417.97476	136.02507	541.19818	-418.65839	-11.93111	499.74231	525.49664	140.67288	488.49908	523.77551	
2653	26.520	-141.72586	169.68971	-240.50568	255.99438	42.02291	-250.96429	-125.23425	-16.47435	373.79852	224.40208	106.79634	383.08282	72.88182	1158.31055	-588.79346	-23.05947	542.76923	-419.04465	135.68849	541.07526	-419.91537	-12.16841	500.35754	524.35883	140.31424	488.98917	522.99896	
2654	26.530	-142.80154	178.36440	-244.70093	255.96342	42.02512	-250.93587	-125.33070	-16.25421	373.37857	224.14563	114.01818	378.37943	73.37029	1158.50903	-589.87329	-23.03142	542.64258	-419.94513	135.69048	540.47742	-420.60779	-12.79956	500.78745	523.46936	139.67776	489.49429	522.55737	
2655	26.540	-143.44289	182.02725	-247.46475	255.99266	42.06264	-250.84427	-125.75452	-16.38518	373.30853	225.15660	117.69084	375.09439	73.48999	1158.42725	-591.09485	-22.64878	542.65509	-420.98737	135.80020	540.46741	-421.72089	-12.98185	501.26959	522.61731	138.84799	489.68842	522.02814	
2656	26.550	-144.48831	182.77945	-250.13101	255.98099	42.05664	-250.83072	-125.77108	-16.91761	372.95963	226.65854	118.42742	372.44199	73.90772	1157.98682	-592.18805	-22.56382	542.66498	-421.80069	136.18312	540.20544	-422.37427	-14.24896	501.75229	521.43567	138.17065	489.85690	520.32709	
